<?xml version="1.0" standalone="no"?>
<!DOCTYPE svg PUBLIC "-//W3C//DTD SVG 20010904//EN"
 "http://www.w3.org/TR/2001/REC-SVG-20010904/DTD/svg10.dtd">
<svg version="1.0" xmlns="http://www.w3.org/2000/svg"
 width="512.000000pt" height="512.000000pt" viewBox="0 0 512.000000 512.000000"
 preserveAspectRatio="xMidYMid meet">
<metadata>
Created by potrace 1.14, written by Peter Selinger 2001-2017
</metadata>
<g transform="translate(0.000000,512.000000) scale(0.100000,-0.100000)"
fill="#000000" stroke="none">
<path d="M2847 4653 c-2 -1 -64 -4 -139 -6 -75 -3 -141 -8 -147 -11 -6 -4 -11
-3 -11 1 0 12 -74 10 -82 -2 -5 -6 -8 -6 -8 2 0 13 -169 11 -240 -2 -19 -3
-42 -7 -50 -8 -8 -2 -28 -10 -45 -18 -16 -9 -41 -20 -55 -24 -24 -8 -117 -51
-400 -187 -135 -65 -174 -83 -240 -109 -19 -7 -44 -20 -55 -29 -41 -31 -112
-111 -130 -145 -11 -19 -23 -35 -27 -35 -5 0 -8 -4 -8 -10 0 -5 -15 -41 -34
-80 -27 -55 -93 -231 -102 -272 -1 -5 -2 -9 -4 -10 -1 -2 -3 -10 -5 -18 -1 -8
-9 -35 -16 -60 -7 -25 -13 -47 -14 -50 -5 -20 -16 -68 -19 -85 -3 -11 -12 -51
-21 -88 -8 -37 -13 -72 -10 -77 4 -6 2 -10 -4 -10 -6 0 -8 -7 -5 -15 4 -8 2
-15 -3 -15 -5 0 -9 -9 -8 -21 1 -11 -7 -64 -17 -116 -10 -53 -20 -112 -22
-132 -3 -20 -7 -52 -10 -71 -3 -19 -7 -53 -10 -75 -3 -22 -8 -56 -11 -76 -3
-19 -7 -55 -10 -80 -2 -24 -4 -44 -5 -44 -1 0 -3 -18 -5 -40 -1 -23 -6 -65 -9
-95 -4 -30 -9 -71 -11 -90 -9 -87 -17 -159 -21 -210 -3 -30 -7 -68 -8 -85 -2
-16 -7 -61 -11 -98 -3 -37 -8 -78 -11 -90 -2 -12 -6 -51 -10 -87 -7 -71 -12
-115 -14 -115 0 0 -3 -27 -6 -60 -3 -33 -7 -71 -9 -85 -8 -41 -19 -153 -20
-187 0 -18 -2 -33 -5 -33 -3 0 -6 -30 -8 -67 -1 -38 -3 -86 -4 -108 -1 -22 -7
-43 -13 -47 -7 -5 -7 -8 1 -8 6 0 12 -17 13 -37 1 -21 3 -43 3 -50 1 -13 98
-50 143 -55 17 -2 32 -6 35 -9 3 -4 25 -9 50 -13 25 -3 61 -8 80 -11 19 -4 45
-8 57 -10 13 -2 27 -6 32 -9 5 -4 13 -2 16 4 4 6 12 7 18 3 7 -5 38 -10 69
-12 55 -2 58 -1 69 26 6 15 12 48 14 73 2 25 7 56 10 70 2 14 7 50 9 80 3 30
8 84 12 120 4 36 7 84 7 108 1 23 4 42 7 42 3 0 5 17 6 38 1 42 13 175 19 212
2 14 7 57 10 95 5 65 8 90 20 185 22 160 27 183 40 192 6 5 6 8 -2 8 -6 0 -9
8 -7 18 2 9 6 64 8 122 5 103 11 176 21 255 3 22 5 61 5 88 0 26 4 47 8 47 4
0 8 26 10 58 1 31 2 65 2 75 2 25 20 10 19 -16 0 -12 2 -62 6 -112 4 -49 7
-137 8 -195 1 -58 7 -108 12 -112 6 -5 6 -8 -1 -8 -7 0 -9 -15 -4 -45 4 -24 3
-50 -1 -57 -4 -7 -3 -18 3 -25 7 -9 7 -13 0 -13 -9 0 -9 -20 -2 -40 1 -3 1 -9
0 -15 -7 -32 -6 -55 2 -55 5 0 6 -5 2 -11 -4 -6 -8 -91 -10 -188 -2 -97 -6
-223 -9 -281 -3 -58 -5 -116 -5 -130 2 -31 2 -30 -4 -115 -2 -38 -7 -166 -11
-283 -4 -117 -8 -222 -10 -233 -2 -10 2 -19 8 -19 8 0 8 -3 2 -8 -15 -11 -13
-342 2 -367 7 -11 13 -17 13 -13 0 4 19 1 41 -7 36 -13 68 -20 189 -40 14 -2
36 -7 50 -11 82 -20 146 -22 280 -9 111 11 382 13 403 3 10 -5 17 -5 17 0 0 7
346 8 415 2 6 -1 42 2 80 6 39 4 122 7 185 7 185 -1 192 -2 184 -15 -5 -7 -3
-8 7 -3 7 5 32 10 54 11 114 5 144 9 189 25 58 22 58 21 60 53 0 14 5 26 10
26 6 0 5 5 -1 11 -7 7 -8 21 -3 40 5 16 5 29 1 29 -5 0 -6 12 -4 28 5 32 5 38
0 80 -3 18 0 35 5 38 5 4 5 10 -1 17 -5 7 -8 33 -7 60 1 26 -1 47 -4 47 -3 0
-6 46 -7 103 0 56 -4 143 -7 192 -3 50 -8 126 -11 170 -2 44 -5 80 -6 80 -2 0
-5 45 -13 180 -4 61 -10 151 -13 200 -7 97 -9 613 -4 788 2 71 7 107 15 107 7
0 6 4 -2 9 -8 4 -14 12 -14 16 0 4 6 12 14 16 7 5 8 9 2 9 -6 0 -10 12 -8 28
2 15 5 44 5 65 2 57 14 52 15 -6 1 -29 4 -77 7 -107 15 -145 28 -290 31 -357
2 -24 6 -46 9 -50 4 -3 2 -12 -4 -20 -6 -7 -7 -13 -2 -13 5 0 9 -33 8 -72 -1
-40 3 -88 8 -107 8 -32 12 -58 19 -131 2 -14 8 -28 13 -32 6 -5 5 -8 -3 -8 -8
0 -10 -5 -5 -12 4 -7 8 -22 9 -33 1 -11 4 -47 8 -80 9 -81 16 -141 20 -197 2
-26 7 -52 11 -57 3 -6 1 -11 -5 -11 -6 0 -8 -5 -4 -12 4 -7 9 -28 10 -48 4
-61 13 -153 20 -203 3 -27 8 -74 9 -105 2 -32 4 -57 5 -57 1 0 3 -11 5 -25 5
-47 16 -135 19 -162 7 -49 12 -51 105 -44 47 3 97 8 111 11 14 3 41 7 60 10
19 2 46 6 60 10 57 12 86 18 103 19 9 0 17 3 17 7 0 4 17 10 37 14 33 6 90 35
69 35 -5 0 -4 6 1 13 10 13 9 172 -1 267 -4 30 -9 80 -11 110 -3 30 -7 75 -10
100 -4 25 -8 59 -10 75 -4 28 -9 77 -20 180 -3 22 -7 56 -9 75 -2 19 -7 58
-10 85 -13 105 -17 142 -21 195 -1 30 -4 55 -5 55 -1 0 -3 20 -5 45 -4 66 -22
239 -32 305 -3 22 -7 58 -8 80 -2 22 -4 40 -5 40 -1 0 -3 20 -5 45 -1 25 -5
61 -9 80 -13 86 -26 174 -31 215 -2 17 -11 73 -20 125 -17 92 -25 142 -27 168
-1 6 -5 12 -10 12 -5 0 -6 4 -3 10 3 5 -1 38 -10 72 -19 77 -25 107 -29 133
-2 11 -4 20 -6 20 -1 0 -3 14 -5 30 -1 17 -6 62 -11 100 -4 39 -8 80 -8 93 -1
12 -3 22 -6 22 -3 0 -7 12 -8 28 -5 61 -14 86 -68 198 -58 119 -134 200 -219
234 -33 13 -63 29 -67 34 -4 6 -8 8 -8 3 0 -4 -19 2 -42 14 -24 12 -45 21 -47
20 -2 -2 -7 1 -10 6 -3 4 -26 18 -51 31 -25 12 -65 34 -90 48 -102 60 -288
152 -294 147 -3 -4 -6 -1 -6 5 0 7 -7 12 -15 12 -8 0 -30 9 -50 20 -19 11 -35
18 -35 15 0 -2 -12 0 -27 6 -26 10 -170 28 -176 22z m-1332 -1733 c3 -5 1 -10
-4 -10 -6 0 -11 5 -11 10 0 6 2 10 4 10 3 0 8 -4 11 -10z"/>
</g>
</svg>
